<mxfile host="Electron" modified="2023-04-14T12:56:55.259Z" agent="Mozilla/5.0 (Windows NT 10.0; Win64; x64) AppleWebKit/537.36 (KHTML, like Gecko) draw.io/21.1.2 Chrome/106.0.5249.199 Electron/21.4.3 Safari/537.36" etag="aKg_11qhRJfrS45KObIp" version="21.1.2" type="device">
  <diagram id="C5RBs43oDa-KdzZeNtuy" name="Page-1">
    <mxGraphModel dx="1050" dy="671" grid="1" gridSize="10" guides="1" tooltips="1" connect="1" arrows="1" fold="1" page="1" pageScale="1" pageWidth="827" pageHeight="1169" math="0" shadow="0">
      <root>
        <mxCell id="WIyWlLk6GJQsqaUBKTNV-0" />
        <mxCell id="WIyWlLk6GJQsqaUBKTNV-1" parent="WIyWlLk6GJQsqaUBKTNV-0" />
        <mxCell id="X0LY3YthTv1reKftoJkV-40" style="edgeStyle=none;curved=1;rounded=0;orthogonalLoop=1;jettySize=auto;html=1;entryX=0.5;entryY=0;entryDx=0;entryDy=0;fontSize=12;startSize=8;endSize=8;" parent="WIyWlLk6GJQsqaUBKTNV-1" source="X0LY3YthTv1reKftoJkV-0" target="X0LY3YthTv1reKftoJkV-8" edge="1">
          <mxGeometry relative="1" as="geometry" />
        </mxCell>
        <mxCell id="X0LY3YthTv1reKftoJkV-0" value="" style="ellipse;html=1;shape=startState;fillColor=#000000;strokeColor=#242424;fontSize=16;" parent="WIyWlLk6GJQsqaUBKTNV-1" vertex="1">
          <mxGeometry x="399" y="100" width="30" height="30" as="geometry" />
        </mxCell>
        <mxCell id="X0LY3YthTv1reKftoJkV-8" value="Initial State" style="swimlane;fontStyle=1;align=center;verticalAlign=middle;childLayout=stackLayout;horizontal=1;startSize=30;horizontalStack=0;resizeParent=0;resizeLast=1;container=0;fontColor=#333333;collapsible=0;rounded=1;arcSize=30;strokeColor=#666666;fillColor=#f5f5f5;swimlaneFillColor=#ffffc0;dropTarget=0;fontSize=16;" parent="WIyWlLk6GJQsqaUBKTNV-1" vertex="1">
          <mxGeometry x="334" y="190" width="160" height="110" as="geometry" />
        </mxCell>
        <mxCell id="X0LY3YthTv1reKftoJkV-9" value="&lt;font style=&quot;font-size: 13px;&quot;&gt;LED0: &lt;i&gt;OFF&lt;/i&gt; |&amp;nbsp; LED1: &lt;i&gt;OFF&lt;/i&gt;&lt;br&gt;LED2: &lt;i&gt;OFF&lt;/i&gt; |&amp;nbsp; LED3: &lt;i&gt;OFF&lt;/i&gt;&lt;/font&gt;" style="text;html=1;strokeColor=none;fillColor=none;align=center;verticalAlign=middle;spacingLeft=4;spacingRight=4;whiteSpace=wrap;overflow=hidden;rotatable=0;fontColor=#000000;fontSize=16;" parent="X0LY3YthTv1reKftoJkV-8" vertex="1">
          <mxGeometry y="30" width="160" height="80" as="geometry" />
        </mxCell>
        <mxCell id="X0LY3YthTv1reKftoJkV-13" value="LED State 3" style="swimlane;fontStyle=1;align=center;verticalAlign=middle;childLayout=stackLayout;horizontal=1;startSize=30;horizontalStack=0;resizeParent=0;resizeLast=1;container=0;fontColor=#333333;collapsible=0;rounded=1;arcSize=30;strokeColor=#666666;fillColor=#f5f5f5;swimlaneFillColor=#ffffc0;dropTarget=0;fontSize=16;" parent="WIyWlLk6GJQsqaUBKTNV-1" vertex="1">
          <mxGeometry x="160" y="660" width="160" height="110" as="geometry" />
        </mxCell>
        <mxCell id="X0LY3YthTv1reKftoJkV-14" value="&lt;font style=&quot;font-size: 13px;&quot;&gt;LED0: &lt;i&gt;ON&lt;/i&gt;&amp;nbsp; &amp;nbsp;|&amp;nbsp; LED1: &lt;i&gt;ON&lt;/i&gt;&amp;nbsp;&amp;nbsp;&lt;br&gt;LED2: &lt;i&gt;ON&lt;/i&gt;&amp;nbsp; &amp;nbsp;|&amp;nbsp; LED3: &lt;i&gt;OFF&lt;/i&gt;&lt;/font&gt;" style="text;html=1;strokeColor=none;fillColor=none;align=center;verticalAlign=middle;spacingLeft=4;spacingRight=4;whiteSpace=wrap;overflow=hidden;rotatable=0;fontColor=#000000;fontSize=16;" parent="X0LY3YthTv1reKftoJkV-13" vertex="1">
          <mxGeometry y="30" width="160" height="80" as="geometry" />
        </mxCell>
        <mxCell id="X0LY3YthTv1reKftoJkV-37" style="edgeStyle=none;curved=1;rounded=0;orthogonalLoop=1;jettySize=auto;html=1;entryX=0;entryY=0;entryDx=0;entryDy=0;fontSize=12;startSize=8;endSize=8;" parent="WIyWlLk6GJQsqaUBKTNV-1" source="X0LY3YthTv1reKftoJkV-15" target="X0LY3YthTv1reKftoJkV-28" edge="1">
          <mxGeometry relative="1" as="geometry" />
        </mxCell>
        <mxCell id="X0LY3YthTv1reKftoJkV-15" value="LED State 5" style="swimlane;fontStyle=1;align=center;verticalAlign=middle;childLayout=stackLayout;horizontal=1;startSize=30;horizontalStack=0;resizeParent=0;resizeLast=1;container=0;fontColor=#333333;collapsible=0;rounded=1;arcSize=30;strokeColor=#666666;fillColor=#f5f5f5;swimlaneFillColor=#ffffc0;dropTarget=0;fontSize=16;" parent="WIyWlLk6GJQsqaUBKTNV-1" vertex="1">
          <mxGeometry x="520" y="660" width="160" height="110" as="geometry" />
        </mxCell>
        <mxCell id="X0LY3YthTv1reKftoJkV-16" value="&lt;font style=&quot;font-size: 13px;&quot;&gt;LED0: &lt;i&gt;OFF&lt;/i&gt; |&amp;nbsp; LED1: &lt;i&gt;ON&lt;/i&gt;&amp;nbsp;&amp;nbsp;&lt;br&gt;LED2: &lt;i&gt;ON&lt;/i&gt;&amp;nbsp; &amp;nbsp;|&amp;nbsp; LED3: &lt;i&gt;ON&lt;/i&gt;&amp;nbsp;&amp;nbsp;&lt;/font&gt;" style="text;html=1;strokeColor=none;fillColor=none;align=center;verticalAlign=middle;spacingLeft=4;spacingRight=4;whiteSpace=wrap;overflow=hidden;rotatable=0;fontColor=#000000;fontSize=16;" parent="X0LY3YthTv1reKftoJkV-15" vertex="1">
          <mxGeometry y="30" width="160" height="80" as="geometry" />
        </mxCell>
        <mxCell id="X0LY3YthTv1reKftoJkV-17" value="LED State 4" style="swimlane;fontStyle=1;align=center;verticalAlign=middle;childLayout=stackLayout;horizontal=1;startSize=30;horizontalStack=0;resizeParent=0;resizeLast=1;container=0;fontColor=#333333;collapsible=0;rounded=1;arcSize=30;strokeColor=#666666;fillColor=#f5f5f5;swimlaneFillColor=#ffffc0;dropTarget=0;fontSize=16;" parent="WIyWlLk6GJQsqaUBKTNV-1" vertex="1">
          <mxGeometry x="334" y="820" width="160" height="110" as="geometry" />
        </mxCell>
        <mxCell id="X0LY3YthTv1reKftoJkV-18" value="&lt;font style=&quot;font-size: 13px;&quot;&gt;LED0: ON&amp;nbsp; &amp;nbsp;|&amp;nbsp; LED1: &lt;i&gt;ON&lt;/i&gt;&amp;nbsp;&amp;nbsp;&lt;br&gt;LED2: ON&amp;nbsp; &amp;nbsp;|&amp;nbsp; LED3: &lt;i&gt;ON&lt;/i&gt;&amp;nbsp;&amp;nbsp;&lt;/font&gt;" style="text;html=1;strokeColor=none;fillColor=none;align=center;verticalAlign=middle;spacingLeft=4;spacingRight=4;whiteSpace=wrap;overflow=hidden;rotatable=0;fontColor=#000000;fontSize=16;" parent="X0LY3YthTv1reKftoJkV-17" vertex="1">
          <mxGeometry y="30" width="160" height="80" as="geometry" />
        </mxCell>
        <mxCell id="X0LY3YthTv1reKftoJkV-39" style="edgeStyle=elbowEdgeStyle;rounded=0;orthogonalLoop=1;jettySize=auto;html=1;entryX=1.022;entryY=0.369;entryDx=0;entryDy=0;entryPerimeter=0;fontSize=12;startSize=8;endSize=8;exitX=0.5;exitY=0;exitDx=0;exitDy=0;" parent="WIyWlLk6GJQsqaUBKTNV-1" source="X0LY3YthTv1reKftoJkV-19" target="X0LY3YthTv1reKftoJkV-9" edge="1">
          <mxGeometry relative="1" as="geometry">
            <Array as="points">
              <mxPoint x="600" y="280" />
            </Array>
          </mxGeometry>
        </mxCell>
        <mxCell id="X0LY3YthTv1reKftoJkV-19" value="LED State 7" style="swimlane;fontStyle=1;align=center;verticalAlign=middle;childLayout=stackLayout;horizontal=1;startSize=30;horizontalStack=0;resizeParent=0;resizeLast=1;container=0;fontColor=#333333;collapsible=0;rounded=1;arcSize=30;strokeColor=#666666;fillColor=#f5f5f5;swimlaneFillColor=#ffffc0;dropTarget=0;fontSize=16;" parent="WIyWlLk6GJQsqaUBKTNV-1" vertex="1">
          <mxGeometry x="520" y="340" width="160" height="110" as="geometry" />
        </mxCell>
        <mxCell id="X0LY3YthTv1reKftoJkV-20" value="&lt;font style=&quot;font-size: 13px;&quot;&gt;LED0: &lt;i&gt;OFF&lt;/i&gt; |&amp;nbsp; LED1: &lt;i&gt;OFF&lt;/i&gt;&lt;br&gt;LED2: &lt;i&gt;OFF&lt;/i&gt; |&amp;nbsp; LED3: &lt;i&gt;ON&lt;/i&gt;&amp;nbsp;&amp;nbsp;&lt;/font&gt;" style="text;html=1;align=center;verticalAlign=middle;spacingLeft=4;spacingRight=4;whiteSpace=wrap;overflow=hidden;rotatable=0;fontSize=16;" parent="X0LY3YthTv1reKftoJkV-19" vertex="1">
          <mxGeometry y="30" width="160" height="80" as="geometry" />
        </mxCell>
        <mxCell id="X0LY3YthTv1reKftoJkV-21" value="LED State 1" style="swimlane;fontStyle=1;align=center;verticalAlign=middle;childLayout=stackLayout;horizontal=1;startSize=30;horizontalStack=0;resizeParent=0;resizeLast=1;container=0;fontColor=#333333;collapsible=0;rounded=1;arcSize=30;strokeColor=#666666;fillColor=#f5f5f5;swimlaneFillColor=#ffffc0;dropTarget=0;fontSize=16;" parent="WIyWlLk6GJQsqaUBKTNV-1" vertex="1">
          <mxGeometry x="160" y="340" width="160" height="110" as="geometry" />
        </mxCell>
        <mxCell id="X0LY3YthTv1reKftoJkV-22" value="&lt;font style=&quot;font-size: 13px;&quot;&gt;LED0: &lt;i&gt;ON&lt;/i&gt;&amp;nbsp; &amp;nbsp;|&amp;nbsp; LED1: &lt;i&gt;OFF&lt;/i&gt;&lt;br&gt;LED2: &lt;i&gt;OFF&lt;/i&gt; |&amp;nbsp; LED3: &lt;i&gt;OFF&lt;/i&gt;&lt;/font&gt;" style="text;html=1;strokeColor=none;fillColor=none;align=center;verticalAlign=middle;spacingLeft=4;spacingRight=4;whiteSpace=wrap;overflow=hidden;rotatable=0;fontColor=#000000;fontSize=16;" parent="X0LY3YthTv1reKftoJkV-21" vertex="1">
          <mxGeometry y="30" width="160" height="80" as="geometry" />
        </mxCell>
        <mxCell id="X0LY3YthTv1reKftoJkV-38" style="edgeStyle=none;curved=1;rounded=0;orthogonalLoop=1;jettySize=auto;html=1;entryX=0.5;entryY=1;entryDx=0;entryDy=0;fontSize=12;startSize=8;endSize=8;" parent="WIyWlLk6GJQsqaUBKTNV-1" source="X0LY3YthTv1reKftoJkV-23" target="X0LY3YthTv1reKftoJkV-20" edge="1">
          <mxGeometry relative="1" as="geometry" />
        </mxCell>
        <mxCell id="X0LY3YthTv1reKftoJkV-23" value="LED State 6" style="swimlane;fontStyle=1;align=center;verticalAlign=middle;childLayout=stackLayout;horizontal=1;startSize=30;horizontalStack=0;resizeParent=0;resizeLast=1;container=0;fontColor=#333333;collapsible=0;rounded=1;arcSize=30;strokeColor=#666666;fillColor=#f5f5f5;swimlaneFillColor=#ffffc0;dropTarget=0;fontSize=16;" parent="WIyWlLk6GJQsqaUBKTNV-1" vertex="1">
          <mxGeometry x="520" y="500" width="160" height="110" as="geometry" />
        </mxCell>
        <mxCell id="X0LY3YthTv1reKftoJkV-24" value="&lt;font style=&quot;font-size: 13px;&quot;&gt;LED0: &lt;i&gt;OFF&lt;/i&gt; |&amp;nbsp; LED1: &lt;i&gt;OFF&lt;/i&gt;&lt;br&gt;LED2: &lt;i&gt;ON&lt;/i&gt;&amp;nbsp; &amp;nbsp;|&amp;nbsp; LED3: &lt;i&gt;ON&lt;/i&gt;&amp;nbsp;&amp;nbsp;&lt;/font&gt;" style="text;html=1;strokeColor=none;fillColor=none;align=center;verticalAlign=middle;spacingLeft=4;spacingRight=4;whiteSpace=wrap;overflow=hidden;rotatable=0;fontColor=#000000;fontSize=16;" parent="X0LY3YthTv1reKftoJkV-23" vertex="1">
          <mxGeometry y="30" width="160" height="80" as="geometry" />
        </mxCell>
        <mxCell id="X0LY3YthTv1reKftoJkV-28" value="&lt;font style=&quot;font-size: 13px;&quot;&gt;LED0: OFF |&amp;nbsp; LED1: OFF&lt;br&gt;LED2: OFF |&amp;nbsp; LED3: OFF&lt;/font&gt;" style="text;html=1;strokeColor=none;fillColor=none;align=center;verticalAlign=middle;spacingLeft=4;spacingRight=4;whiteSpace=wrap;overflow=hidden;rotatable=0;fontColor=#000000;fontSize=16;" parent="X0LY3YthTv1reKftoJkV-23" vertex="1">
          <mxGeometry y="110" width="160" as="geometry" />
        </mxCell>
        <mxCell id="X0LY3YthTv1reKftoJkV-25" value="LED State 2" style="swimlane;fontStyle=1;align=center;verticalAlign=middle;childLayout=stackLayout;horizontal=1;startSize=30;horizontalStack=0;resizeParent=0;resizeLast=1;container=0;fontColor=#333333;collapsible=0;rounded=1;arcSize=30;strokeColor=#666666;fillColor=#f5f5f5;swimlaneFillColor=#ffffc0;dropTarget=0;fontSize=16;" parent="WIyWlLk6GJQsqaUBKTNV-1" vertex="1">
          <mxGeometry x="160" y="500" width="160" height="110" as="geometry" />
        </mxCell>
        <mxCell id="X0LY3YthTv1reKftoJkV-26" value="&lt;font style=&quot;font-size: 13px;&quot;&gt;LED0: &lt;i&gt;ON&lt;/i&gt;&amp;nbsp; &amp;nbsp;|&amp;nbsp; LED1: &lt;i&gt;ON&lt;/i&gt;&amp;nbsp;&amp;nbsp;&lt;br&gt;LED2: &lt;i&gt;OFF&lt;/i&gt; |&amp;nbsp; LED3: &lt;i&gt;OFF&lt;/i&gt;&lt;/font&gt;" style="text;html=1;strokeColor=none;fillColor=none;align=center;verticalAlign=middle;spacingLeft=4;spacingRight=4;whiteSpace=wrap;overflow=hidden;rotatable=0;fontColor=#000000;fontSize=16;" parent="X0LY3YthTv1reKftoJkV-25" vertex="1">
          <mxGeometry y="30" width="160" height="80" as="geometry" />
        </mxCell>
        <mxCell id="X0LY3YthTv1reKftoJkV-31" style="edgeStyle=none;curved=1;rounded=0;orthogonalLoop=1;jettySize=auto;html=1;exitX=0.5;exitY=1;exitDx=0;exitDy=0;fontSize=12;startSize=8;endSize=8;" parent="WIyWlLk6GJQsqaUBKTNV-1" source="X0LY3YthTv1reKftoJkV-22" target="X0LY3YthTv1reKftoJkV-25" edge="1">
          <mxGeometry relative="1" as="geometry" />
        </mxCell>
        <mxCell id="X0LY3YthTv1reKftoJkV-32" style="edgeStyle=orthogonalEdgeStyle;rounded=0;orthogonalLoop=1;jettySize=auto;html=1;entryX=0.5;entryY=0;entryDx=0;entryDy=0;fontSize=12;startSize=8;endSize=8;exitX=0.004;exitY=0.369;exitDx=0;exitDy=0;exitPerimeter=0;" parent="WIyWlLk6GJQsqaUBKTNV-1" source="X0LY3YthTv1reKftoJkV-9" target="X0LY3YthTv1reKftoJkV-21" edge="1">
          <mxGeometry relative="1" as="geometry">
            <mxPoint x="414" y="260" as="sourcePoint" />
          </mxGeometry>
        </mxCell>
        <mxCell id="X0LY3YthTv1reKftoJkV-33" style="edgeStyle=none;curved=1;rounded=0;orthogonalLoop=1;jettySize=auto;html=1;entryX=0.5;entryY=0;entryDx=0;entryDy=0;fontSize=12;startSize=8;endSize=8;" parent="WIyWlLk6GJQsqaUBKTNV-1" source="X0LY3YthTv1reKftoJkV-26" target="X0LY3YthTv1reKftoJkV-13" edge="1">
          <mxGeometry relative="1" as="geometry" />
        </mxCell>
        <mxCell id="X0LY3YthTv1reKftoJkV-34" style="edgeStyle=orthogonalEdgeStyle;rounded=0;orthogonalLoop=1;jettySize=auto;html=1;entryX=-0.002;entryY=0.403;entryDx=0;entryDy=0;fontSize=12;startSize=8;endSize=8;exitX=0.5;exitY=1;exitDx=0;exitDy=0;entryPerimeter=0;" parent="WIyWlLk6GJQsqaUBKTNV-1" source="X0LY3YthTv1reKftoJkV-14" target="X0LY3YthTv1reKftoJkV-18" edge="1">
          <mxGeometry relative="1" as="geometry" />
        </mxCell>
        <mxCell id="X0LY3YthTv1reKftoJkV-36" style="edgeStyle=orthogonalEdgeStyle;rounded=0;orthogonalLoop=1;jettySize=auto;html=1;entryX=0.5;entryY=1;entryDx=0;entryDy=0;fontSize=12;startSize=8;endSize=8;exitX=1.006;exitY=0.382;exitDx=0;exitDy=0;exitPerimeter=0;" parent="WIyWlLk6GJQsqaUBKTNV-1" source="X0LY3YthTv1reKftoJkV-18" target="X0LY3YthTv1reKftoJkV-16" edge="1">
          <mxGeometry relative="1" as="geometry" />
        </mxCell>
        <mxCell id="X0LY3YthTv1reKftoJkV-42" value="Button0: &lt;i&gt;Press&lt;/i&gt; &lt;i&gt;1&lt;/i&gt;" style="text;html=1;strokeColor=none;fillColor=none;align=center;verticalAlign=middle;whiteSpace=wrap;rounded=0;fontSize=16;" parent="WIyWlLk6GJQsqaUBKTNV-1" vertex="1">
          <mxGeometry x="140" y="280" width="90" height="30" as="geometry" />
        </mxCell>
        <mxCell id="X0LY3YthTv1reKftoJkV-43" value="Button0: &lt;i&gt;Press&lt;/i&gt;&amp;nbsp;&lt;i&gt;2&lt;/i&gt;" style="text;html=1;strokeColor=none;fillColor=none;align=center;verticalAlign=middle;whiteSpace=wrap;rounded=0;fontSize=16;" parent="WIyWlLk6GJQsqaUBKTNV-1" vertex="1">
          <mxGeometry x="100" y="460" width="90" height="30" as="geometry" />
        </mxCell>
        <mxCell id="X0LY3YthTv1reKftoJkV-44" value="Button0: &lt;i&gt;Press&lt;/i&gt;&amp;nbsp;&lt;i&gt;3&lt;/i&gt;" style="text;html=1;strokeColor=none;fillColor=none;align=center;verticalAlign=middle;whiteSpace=wrap;rounded=0;fontSize=16;" parent="WIyWlLk6GJQsqaUBKTNV-1" vertex="1">
          <mxGeometry x="100" y="620" width="90" height="30" as="geometry" />
        </mxCell>
        <mxCell id="X0LY3YthTv1reKftoJkV-45" value="Button0: &lt;i&gt;Press&lt;/i&gt;&amp;nbsp;&lt;i&gt;4&lt;/i&gt;" style="text;html=1;strokeColor=none;fillColor=none;align=center;verticalAlign=middle;whiteSpace=wrap;rounded=0;fontSize=16;" parent="WIyWlLk6GJQsqaUBKTNV-1" vertex="1">
          <mxGeometry x="140" y="800" width="90" height="30" as="geometry" />
        </mxCell>
        <mxCell id="X0LY3YthTv1reKftoJkV-46" value="Button0: &lt;i&gt;Press&lt;/i&gt;&amp;nbsp;&lt;i&gt;5&lt;/i&gt;" style="text;html=1;strokeColor=none;fillColor=none;align=center;verticalAlign=middle;whiteSpace=wrap;rounded=0;fontSize=16;" parent="WIyWlLk6GJQsqaUBKTNV-1" vertex="1">
          <mxGeometry x="610" y="800" width="90" height="30" as="geometry" />
        </mxCell>
        <mxCell id="X0LY3YthTv1reKftoJkV-47" value="Button0: &lt;i&gt;Press&lt;/i&gt;&amp;nbsp;&lt;i&gt;6&lt;/i&gt;" style="text;html=1;strokeColor=none;fillColor=none;align=center;verticalAlign=middle;whiteSpace=wrap;rounded=0;fontSize=16;" parent="WIyWlLk6GJQsqaUBKTNV-1" vertex="1">
          <mxGeometry x="660" y="620" width="90" height="30" as="geometry" />
        </mxCell>
        <mxCell id="X0LY3YthTv1reKftoJkV-48" value="Button0: &lt;i&gt;Press&lt;/i&gt;&amp;nbsp;&lt;i&gt;7&lt;/i&gt;" style="text;html=1;strokeColor=none;fillColor=none;align=center;verticalAlign=middle;whiteSpace=wrap;rounded=0;fontSize=16;" parent="WIyWlLk6GJQsqaUBKTNV-1" vertex="1">
          <mxGeometry x="660" y="460" width="90" height="30" as="geometry" />
        </mxCell>
        <mxCell id="X0LY3YthTv1reKftoJkV-49" value="Button0: &lt;i&gt;Press&lt;/i&gt;&amp;nbsp;&lt;i&gt;7&lt;/i&gt;" style="text;html=1;strokeColor=none;fillColor=none;align=center;verticalAlign=middle;whiteSpace=wrap;rounded=0;fontSize=16;" parent="WIyWlLk6GJQsqaUBKTNV-1" vertex="1">
          <mxGeometry x="610" y="280" width="90" height="30" as="geometry" />
        </mxCell>
      </root>
    </mxGraphModel>
  </diagram>
</mxfile>
